<mxfile host="app.diagrams.net" modified="2021-02-04T07:18:32.500Z" agent="5.0 (Windows NT 10.0; Win64; x64) AppleWebKit/537.36 (KHTML, like Gecko) Chrome/88.0.4324.104 Safari/537.36" etag="i0q6xQMYCRsHrNqnhjh0" version="14.2.9" type="github">
  <diagram id="prtHgNgQTEPvFCAcTncT" name="Page-1">
    <mxGraphModel dx="1422" dy="772" grid="1" gridSize="10" guides="1" tooltips="1" connect="1" arrows="1" fold="1" page="1" pageScale="1" pageWidth="827" pageHeight="1169" math="0" shadow="0">
      <root>
        <mxCell id="0" />
        <mxCell id="1" parent="0" />
        <mxCell id="BFTq7_KF8aVC6eQu7_rG-1" value="" style="rounded=0;whiteSpace=wrap;html=1;" vertex="1" parent="1">
          <mxGeometry x="40" y="40" width="770" height="90" as="geometry" />
        </mxCell>
        <mxCell id="BFTq7_KF8aVC6eQu7_rG-2" value="ODBC" style="rounded=0;whiteSpace=wrap;html=1;" vertex="1" parent="1">
          <mxGeometry x="60" y="70" width="60" height="45" as="geometry" />
        </mxCell>
        <mxCell id="BFTq7_KF8aVC6eQu7_rG-3" value="JDBC" style="rounded=0;whiteSpace=wrap;html=1;" vertex="1" parent="1">
          <mxGeometry x="140" y="70" width="60" height="45" as="geometry" />
        </mxCell>
        <mxCell id="BFTq7_KF8aVC6eQu7_rG-4" value="ADO.NET" style="rounded=0;whiteSpace=wrap;html=1;" vertex="1" parent="1">
          <mxGeometry x="230" y="70" width="60" height="45" as="geometry" />
        </mxCell>
        <mxCell id="BFTq7_KF8aVC6eQu7_rG-5" value="REST API" style="rounded=0;whiteSpace=wrap;html=1;" vertex="1" parent="1">
          <mxGeometry x="320" y="70" width="60" height="45" as="geometry" />
        </mxCell>
        <mxCell id="BFTq7_KF8aVC6eQu7_rG-6" value="DLL" style="rounded=0;whiteSpace=wrap;html=1;" vertex="1" parent="1">
          <mxGeometry x="410" y="70" width="60" height="45" as="geometry" />
        </mxCell>
        <mxCell id="BFTq7_KF8aVC6eQu7_rG-7" value="JAVA" style="rounded=0;whiteSpace=wrap;html=1;" vertex="1" parent="1">
          <mxGeometry x="500" y="70" width="60" height="45" as="geometry" />
        </mxCell>
        <mxCell id="BFTq7_KF8aVC6eQu7_rG-8" value="LDAP" style="rounded=0;whiteSpace=wrap;html=1;" vertex="1" parent="1">
          <mxGeometry x="590" y="70" width="60" height="45" as="geometry" />
        </mxCell>
        <mxCell id="BFTq7_KF8aVC6eQu7_rG-9" value="访问层" style="text;html=1;strokeColor=none;fillColor=none;align=center;verticalAlign=middle;whiteSpace=wrap;rounded=0;" vertex="1" parent="1">
          <mxGeometry x="50" y="42.5" width="40" height="20" as="geometry" />
        </mxCell>
        <mxCell id="BFTq7_KF8aVC6eQu7_rG-11" value="" style="rounded=0;whiteSpace=wrap;html=1;" vertex="1" parent="1">
          <mxGeometry x="40" y="150" width="770" height="570" as="geometry" />
        </mxCell>
        <mxCell id="BFTq7_KF8aVC6eQu7_rG-12" value="数据层" style="text;html=1;strokeColor=none;fillColor=none;align=center;verticalAlign=middle;whiteSpace=wrap;rounded=0;" vertex="1" parent="1">
          <mxGeometry x="50" y="160" width="40" height="20" as="geometry" />
        </mxCell>
        <mxCell id="BFTq7_KF8aVC6eQu7_rG-13" value="" style="rounded=0;whiteSpace=wrap;html=1;" vertex="1" parent="1">
          <mxGeometry x="50" y="190" width="450" height="90" as="geometry" />
        </mxCell>
        <mxCell id="BFTq7_KF8aVC6eQu7_rG-14" value="公共卫生" style="rounded=0;whiteSpace=wrap;html=1;" vertex="1" parent="1">
          <mxGeometry x="70" y="220" width="60" height="45" as="geometry" />
        </mxCell>
        <mxCell id="BFTq7_KF8aVC6eQu7_rG-15" value="医疗服务" style="rounded=0;whiteSpace=wrap;html=1;" vertex="1" parent="1">
          <mxGeometry x="150" y="220" width="60" height="45" as="geometry" />
        </mxCell>
        <mxCell id="BFTq7_KF8aVC6eQu7_rG-16" value="医疗保障" style="rounded=0;whiteSpace=wrap;html=1;" vertex="1" parent="1">
          <mxGeometry x="240" y="220" width="60" height="45" as="geometry" />
        </mxCell>
        <mxCell id="BFTq7_KF8aVC6eQu7_rG-17" value="药品供应保障" style="rounded=0;whiteSpace=wrap;html=1;" vertex="1" parent="1">
          <mxGeometry x="330" y="220" width="60" height="45" as="geometry" />
        </mxCell>
        <mxCell id="BFTq7_KF8aVC6eQu7_rG-18" value="外部共享" style="rounded=0;whiteSpace=wrap;html=1;" vertex="1" parent="1">
          <mxGeometry x="420" y="220" width="60" height="45" as="geometry" />
        </mxCell>
        <mxCell id="BFTq7_KF8aVC6eQu7_rG-21" value="业务库与共享库" style="text;html=1;strokeColor=none;fillColor=none;align=center;verticalAlign=middle;whiteSpace=wrap;rounded=0;" vertex="1" parent="1">
          <mxGeometry x="240" y="190" width="140" height="20" as="geometry" />
        </mxCell>
        <mxCell id="BFTq7_KF8aVC6eQu7_rG-23" value="" style="rounded=0;whiteSpace=wrap;html=1;" vertex="1" parent="1">
          <mxGeometry x="510" y="190" width="290" height="90" as="geometry" />
        </mxCell>
        <mxCell id="BFTq7_KF8aVC6eQu7_rG-24" value="卫生统计" style="rounded=0;whiteSpace=wrap;html=1;" vertex="1" parent="1">
          <mxGeometry x="520" y="220" width="60" height="45" as="geometry" />
        </mxCell>
        <mxCell id="BFTq7_KF8aVC6eQu7_rG-25" value="综合管理" style="rounded=0;whiteSpace=wrap;html=1;" vertex="1" parent="1">
          <mxGeometry x="590" y="220" width="60" height="45" as="geometry" />
        </mxCell>
        <mxCell id="BFTq7_KF8aVC6eQu7_rG-26" value="监测/监管" style="rounded=0;whiteSpace=wrap;html=1;" vertex="1" parent="1">
          <mxGeometry x="660" y="220" width="60" height="45" as="geometry" />
        </mxCell>
        <mxCell id="BFTq7_KF8aVC6eQu7_rG-27" value="决策支持" style="rounded=0;whiteSpace=wrap;html=1;" vertex="1" parent="1">
          <mxGeometry x="730" y="220" width="60" height="45" as="geometry" />
        </mxCell>
        <mxCell id="BFTq7_KF8aVC6eQu7_rG-28" value="统计分析库" style="text;html=1;strokeColor=none;fillColor=none;align=center;verticalAlign=middle;whiteSpace=wrap;rounded=0;" vertex="1" parent="1">
          <mxGeometry x="590" y="200" width="140" height="20" as="geometry" />
        </mxCell>
        <mxCell id="BFTq7_KF8aVC6eQu7_rG-29" value="" style="rounded=0;whiteSpace=wrap;html=1;" vertex="1" parent="1">
          <mxGeometry x="50" y="290" width="90" height="220" as="geometry" />
        </mxCell>
        <mxCell id="BFTq7_KF8aVC6eQu7_rG-30" value="卫生资源库" style="text;html=1;strokeColor=none;fillColor=none;align=center;verticalAlign=middle;whiteSpace=wrap;rounded=0;" vertex="1" parent="1">
          <mxGeometry x="60" y="300" width="70" height="20" as="geometry" />
        </mxCell>
        <mxCell id="BFTq7_KF8aVC6eQu7_rG-31" value="公共卫生" style="rounded=0;whiteSpace=wrap;html=1;" vertex="1" parent="1">
          <mxGeometry x="60" y="330" width="60" height="45" as="geometry" />
        </mxCell>
      </root>
    </mxGraphModel>
  </diagram>
</mxfile>
